<svg xmlns="http://www.w3.org/2000/svg" xmlns:xlink="http://www.w3.org/1999/xlink" width="1000" zoomAndPan="magnify" viewBox="0 0 750 749.999995" height="1000" preserveAspectRatio="xMidYMid meet" version="1.0"><defs><clipPath id="7127416a79"><path d="M 468 333 L 736 333 L 736 662.980469 L 468 662.980469 Z M 468 333 " clip-rule="nonzero"/></clipPath><clipPath id="ed8bb3c702"><path d="M 685.164062 543.5 L 735.523438 350.976562 C 737.246094 343.539062 733.230469 335.511719 725.230469 333.785156 C 717.792969 332.0625 709.765625 336.078125 708.066406 344.105469 L 659.96875 525.746094 L 482.542969 525.746094 C 474.539062 525.746094 468.234375 532.046875 468.234375 540.078125 C 468.234375 548.105469 474.539062 554.410156 482.542969 554.410156 L 520.316406 554.410156 L 480.25 642.644531 C 476.828125 649.511719 480.25 658.109375 487.121094 661.554688 C 488.847656 662.121094 491.136719 662.710938 492.835938 662.710938 C 497.980469 662.710938 503.128906 659.855469 505.417969 654.683594 L 550.632812 554.410156 L 619.878906 554.410156 L 665.09375 654.683594 C 667.382812 659.832031 672.53125 662.710938 677.675781 662.710938 C 679.398438 662.710938 681.691406 662.144531 683.390625 661.554688 C 690.261719 658.109375 693.683594 650.105469 690.261719 642.644531 L 650.195312 554.410156 L 670.214844 554.410156 C 677.652344 554.410156 683.390625 549.828125 685.089844 543.523438 Z M 685.164062 543.5 " clip-rule="nonzero"/></clipPath><clipPath id="96376fae52"><path d="M 0 0 L 268 0 L 268 329.878906 L 0 329.878906 Z M 0 0 " clip-rule="nonzero"/></clipPath><clipPath id="434cae7061"><path d="M 217.164062 210.5 L 267.523438 17.976562 C 269.246094 10.539062 265.230469 2.511719 257.230469 0.785156 C 249.792969 -0.9375 241.765625 3.078125 240.066406 11.105469 L 191.96875 192.746094 L 14.542969 192.746094 C 6.539062 192.746094 0.234375 199.046875 0.234375 207.078125 C 0.234375 215.105469 6.539062 221.410156 14.542969 221.410156 L 52.316406 221.410156 L 12.25 309.644531 C 8.828125 316.511719 12.25 325.109375 19.121094 328.554688 C 20.847656 329.121094 23.136719 329.710938 24.835938 329.710938 C 29.980469 329.710938 35.128906 326.855469 37.417969 321.683594 L 82.632812 221.410156 L 151.878906 221.410156 L 197.09375 321.683594 C 199.382812 326.832031 204.53125 329.710938 209.675781 329.710938 C 211.398438 329.710938 213.691406 329.144531 215.390625 328.554688 C 222.261719 325.109375 225.683594 317.105469 222.261719 309.644531 L 182.195312 221.410156 L 202.214844 221.410156 C 209.652344 221.410156 215.390625 216.828125 217.089844 210.523438 Z M 217.164062 210.5 " clip-rule="nonzero"/></clipPath><clipPath id="96cc5380e0"><rect x="0" width="268" y="0" height="330"/></clipPath><clipPath id="db3b223fdf"><path d="M 14.421875 333 L 281.199219 333 L 281.199219 662.980469 L 14.421875 662.980469 Z M 14.421875 333 " clip-rule="nonzero"/></clipPath><clipPath id="f0c3ce2104"><path d="M 268.496094 526.3125 L 90.5 526.3125 L 42.40625 344.128906 C 40.683594 336.691406 32.679688 332.085938 25.242188 333.8125 C 17.804688 335.535156 13.222656 343.5625 14.949219 351 L 65.308594 543.523438 C 67.03125 549.828125 72.746094 553.84375 79.046875 553.84375 L 99.070312 553.84375 L 59.003906 642.050781 C 55.582031 648.921875 59.003906 657.515625 65.875 660.964844 C 67.597656 661.53125 69.886719 662.121094 71.585938 662.121094 C 76.734375 662.121094 81.878906 659.265625 84.171875 654.09375 L 129.382812 553.816406 L 198.65625 553.816406 L 243.867188 654.09375 C 246.160156 659.242188 251.304688 662.121094 256.453125 662.121094 C 258.175781 662.121094 260.464844 661.554688 262.164062 660.964844 C 269.035156 657.515625 272.460938 649.511719 269.035156 642.050781 L 228.996094 553.816406 L 266.769531 553.816406 C 274.773438 553.816406 281.078125 547.511719 281.078125 539.484375 C 281.078125 531.457031 276.5 526.3125 268.496094 526.3125 Z M 268.496094 526.3125 " clip-rule="nonzero"/></clipPath><clipPath id="ada9306797"><path d="M 0.421875 0 L 267.199219 0 L 267.199219 329.160156 L 0.421875 329.160156 Z M 0.421875 0 " clip-rule="nonzero"/></clipPath><clipPath id="c1d6f391b7"><path d="M 254.496094 193.3125 L 76.5 193.3125 L 28.40625 11.128906 C 26.683594 3.691406 18.679688 -0.914062 11.242188 0.8125 C 3.804688 2.535156 -0.777344 10.5625 0.949219 18 L 51.308594 210.523438 C 53.03125 216.828125 58.746094 220.84375 65.046875 220.84375 L 85.070312 220.84375 L 45.003906 309.050781 C 41.582031 315.921875 45.003906 324.515625 51.875 327.964844 C 53.597656 328.53125 55.886719 329.121094 57.585938 329.121094 C 62.734375 329.121094 67.878906 326.265625 70.171875 321.09375 L 115.382812 220.816406 L 184.65625 220.816406 L 229.867188 321.09375 C 232.160156 326.242188 237.304688 329.121094 242.453125 329.121094 C 244.175781 329.121094 246.464844 328.554688 248.164062 327.964844 C 255.035156 324.515625 258.460938 316.511719 255.035156 309.050781 L 214.996094 220.816406 L 252.769531 220.816406 C 260.773438 220.816406 267.078125 214.511719 267.078125 206.484375 C 267.078125 198.457031 262.5 193.3125 254.496094 193.3125 Z M 254.496094 193.3125 " clip-rule="nonzero"/></clipPath><clipPath id="fd96e1a018"><rect x="0" width="268" y="0" height="330"/></clipPath><clipPath id="794ad99973"><path d="M 163.761719 334.378906 L 587.300781 334.378906 L 587.300781 387.101562 L 163.761719 387.101562 Z M 343.480469 387.101562 L 407.582031 387.101562 L 407.582031 635.179688 L 343.480469 635.179688 Z M 311.417969 635.179688 L 439.621094 635.179688 L 439.621094 655.226562 L 311.417969 655.226562 Z M 311.417969 635.179688 " clip-rule="nonzero"/></clipPath><clipPath id="04b8cde394"><path d="M 0.761719 0.378906 L 424.300781 0.378906 L 424.300781 53.101562 L 0.761719 53.101562 Z M 180.480469 53.101562 L 244.582031 53.101562 L 244.582031 301.179688 L 180.480469 301.179688 Z M 148.417969 301.179688 L 276.621094 301.179688 L 276.621094 321.226562 L 148.417969 321.226562 Z M 148.417969 301.179688 " clip-rule="nonzero"/></clipPath><clipPath id="bf91603eb8"><rect x="0" width="425" y="0" height="322"/></clipPath><clipPath id="ae57de3bd1"><path d="M 274 75 L 552 75 L 552 332 L 274 332 Z M 274 75 " clip-rule="nonzero"/></clipPath><clipPath id="5c33e614e9"><path d="M 374.066406 331.273438 C 369.140625 331.273438 364.511719 329.425781 361.113281 326.03125 L 280.289062 242.769531 C 272.582031 235.675781 272.261719 223.660156 279.675781 215.925781 C 286.765625 208.21875 298.785156 207.898438 306.515625 215.3125 L 365.742188 257.570312 C 369.140625 260.648438 374.386719 260.03125 377.144531 256.339844 L 517.460938 83.023438 C 523.617188 74.699219 535.660156 72.851562 543.984375 79.328125 C 552.308594 85.484375 554.152344 97.527344 547.675781 105.851562 L 389.160156 323.589844 C 385.761719 327.902344 380.835938 330.683594 375.59375 331.003906 C 374.976562 331.324219 374.65625 331.324219 374.039062 331.324219 Z M 374.066406 331.273438 " clip-rule="nonzero"/></clipPath><clipPath id="c28c593c15"><path d="M 0 0 L 278 0 L 278 256.441406 L 0 256.441406 Z M 0 0 " clip-rule="nonzero"/></clipPath><clipPath id="90c1f5331f"><path d="M 100.066406 256.273438 C 95.140625 256.273438 90.511719 254.425781 87.113281 251.03125 L 6.289062 167.769531 C -1.417969 160.675781 -1.738281 148.660156 5.675781 140.925781 C 12.765625 133.21875 24.785156 132.898438 32.515625 140.3125 L 91.742188 182.570312 C 95.140625 185.648438 100.386719 185.03125 103.144531 181.339844 L 243.460938 8.023438 C 249.617188 -0.300781 261.660156 -2.148438 269.984375 4.328125 C 278.308594 10.484375 280.152344 22.527344 273.675781 30.851562 L 115.160156 248.589844 C 111.761719 252.902344 106.835938 255.683594 101.59375 256.003906 C 100.976562 256.324219 100.65625 256.324219 100.039062 256.324219 Z M 100.066406 256.273438 " clip-rule="nonzero"/></clipPath><clipPath id="bcf2516d01"><rect x="0" width="278" y="0" height="257"/></clipPath></defs><g clip-path="url(#7127416a79)"><g clip-path="url(#ed8bb3c702)"><g transform="matrix(1, 0, 0, 1, 468, 333)"><g clip-path="url(#96cc5380e0)"><g clip-path="url(#96376fae52)"><g clip-path="url(#434cae7061)"><rect x="-633" width="1080" fill="#313c42" height="1079.999992" y="-497.999999" fill-opacity="1"/></g></g></g></g></g></g><g clip-path="url(#db3b223fdf)"><g clip-path="url(#f0c3ce2104)"><g transform="matrix(1, 0, 0, 1, 14, 333)"><g clip-path="url(#fd96e1a018)"><g clip-path="url(#ada9306797)"><g clip-path="url(#c1d6f391b7)"><rect x="-179" width="1080" fill="#313c42" height="1079.999992" y="-497.999999" fill-opacity="1"/></g></g></g></g></g></g><g clip-path="url(#794ad99973)"><g transform="matrix(1, 0, 0, 1, 163, 334)"><g clip-path="url(#bf91603eb8)"><g clip-path="url(#04b8cde394)"><rect x="-328" width="1080" fill="#313c42" height="1079.999992" y="-498.999999" fill-opacity="1"/></g></g></g></g><g clip-path="url(#ae57de3bd1)"><g clip-path="url(#5c33e614e9)"><g transform="matrix(1, 0, 0, 1, 274, 75)"><g clip-path="url(#bcf2516d01)"><g clip-path="url(#c28c593c15)"><g clip-path="url(#90c1f5331f)"><rect x="-439" width="1080" fill="#3f4143" height="1079.999992" y="-239.999999" fill-opacity="1"/></g></g></g></g></g></g></svg>